<?xml version="1.0" encoding="utf-8"?>
<!-- Generator: Adobe Illustrator 21.1.0, SVG Export Plug-In . SVG Version: 6.00 Build 0)  -->
<svg version="1.1" id="Layer_1" xmlns="http://www.w3.org/2000/svg" xmlns:xlink="http://www.w3.org/1999/xlink" x="0px" y="0px"
	 width="283.5px" height="283.5px" viewBox="0 0 283.5 283.5" enable-background="new 0 0 283.5 283.5" xml:space="preserve">
<g>
	<path id="left-head" fill="#002A4E" d="M62.2,56.7c15.7,0,28.3-12.7,28.3-28.3C90.5,12.7,77.8,0,62.2,0S33.8,12.7,33.8,28.3
		C33.8,44,46.5,56.7,62.2,56.7z M62.2,11.3c9.4,0,17,7.6,17,17s-7.6,17-17,17s-17-7.6-17-17S52.8,11.3,62.2,11.3z"/>
	<path id="right-head_1_" fill="#002A4E" d="M263.8,173.1c11.1-11.1,11.1-29,0-40.1c-11.1-11.1-29-11.1-40.1,0
		c-11.1,11.1-11.1,29,0,40.1S252.8,184.2,263.8,173.1z M231.8,141c6.6-6.6,17.4-6.6,24.1,0c6.6,6.6,6.6,17.4,0,24.1
		c-6.6,6.6-17.4,6.6-24.1,0C225.1,158.5,225.1,147.7,231.8,141z"/>
	<path id="bodies" fill="#002A4E" d="M224.1,182.4L224.1,182.4l-10-10l-0.2,0.1l0.2-0.2c-3.7-3.7-8.7-5.8-14-5.8h-80.2
		c-10.9,0-19.8,8.9-19.8,19.8c0,2.9,0.6,5.6,1.7,8.1c-1.4-0.4-2.9-0.6-4.4-0.6c-4.5,0-8.8,1.8-12,5L68,216v-28.9
		c0-3.1-2.5-5.7-5.7-5.7s-5.7,2.5-5.7,5.7v40.1l-17,16.9v-85.3h14.2c11,0,19.8-8.9,19.8-19.8c0-11-8.9-19.8-19.8-19.8v0H39.7v-17
		c0-3.1-2.5-5.7-5.7-5.7c-3.1,0-5.7,2.5-5.7,5.7v22.7c0,3.1,2.5,5.7,5.7,5.7h19.8v0c4.7,0,8.5,3.8,8.5,8.5c0,4.7-3.8,8.5-8.5,8.5v0
		h-34c-4.7,0-8.5-3.8-8.5-8.5h0V90.7c0,0,0.1-4.5,2.2-8.8c2.8-5.5,7.6-8.2,14.8-8.2v0h62.3c0,0,0,0,0,0c2.3,0,4.4,0.9,6,2.5l51.1,51
		l0,0c1.6,1.6,2.5,3.7,2.5,6c0,2.3-0.9,4.4-2.5,6c-1.6,1.6-3.7,2.5-5.9,2.5c0,0-0.1,0-0.1,0c0,0,0,0,0,0c-0.6,0-1.1-0.1-1.7-0.2
		c-1.6-0.3-3.1-1.1-4.3-2.3l0,0c0,0,0,0,0,0L94.7,98.1c0,0,0,0,0,0c-0.3-0.3-0.6-0.5-0.9-0.7c0,0,0,0,0,0c-0.3-0.2-0.6-0.4-0.9-0.5
		c0,0,0,0-0.1,0c-0.3-0.1-0.6-0.2-1-0.3c0,0,0,0,0,0c-0.3-0.1-0.7-0.1-1-0.1c0,0,0,0,0,0c0,0,0,0,0,0c-0.3,0-0.7,0-1,0.1
		c0,0-0.1,0-0.1,0c-0.3,0.1-0.7,0.2-1,0.3c0,0-0.1,0-0.1,0c-0.3,0.1-0.6,0.3-0.9,0.5c0,0-0.1,0-0.1,0c-0.3,0.2-0.6,0.4-0.9,0.7
		c0,0,0,0,0,0c0,0,0,0,0,0c-0.3,0.3-0.5,0.6-0.7,0.9c0,0,0,0,0,0.1c-0.2,0.3-0.4,0.6-0.5,0.9c0,0,0,0,0,0.1c-0.1,0.3-0.2,0.6-0.3,1
		c0,0,0,0,0,0c-0.1,0.3-0.1,0.7-0.1,1c0,0,0,0,0,0c0,0,0,0,0,0l0.2,21.2h0c-0.1,0.5-0.2,0.9-0.2,1.4v34v22.7h0
		c0,2.5,1.7,4.8,4.2,5.5c3,0.8,6.1-1,6.9-4c0.1-0.5,0.2-1,0.2-1.5h0v-19.8v-2.8v-34c0-0.5-0.1-0.9-0.2-1.3l0.2,0v-7.6l31.3,31.4l0,0
		c2.8,2.8,6.4,4.7,10.2,5.4c1.3,0.2,2.6,0.4,3.9,0.4c5.3,0,10.3-2.1,14-5.8s5.8-8.7,5.8-14c0-5.3-2.1-10.3-5.8-14c0,0,0,0,0,0
		l-51.1-51c-3.7-3.7-8.7-5.8-14-5.8c0,0,0,0,0,0v0H28.3v0C7.9,62.4,1.2,77.7,0.2,87.9H0v51c0,11,8.9,19.8,19.8,19.8v0h8.5v104.9
		c0,5.1,1.9,10.2,5.8,14c7.7,7.7,20.3,7.7,28.1,0l25.9-25.9c0,0,0.1-0.1,0.1-0.1c0,0,0,0,0,0c0,0,0,0,0,0l8.3-8.5l35.3,31.6
		c6.5,6.4,13.2,8.7,19.4,8.7c8.9,0,16.5-4.8,20.6-8.9v0l0,0l52.1-52.1C235.1,211.4,235.1,193.5,224.1,182.4z M216,214.5l-52.1,52.1
		c0,0,0,0,0,0c0,0-3.4,3.3-8.1,4.8c-5.7,1.8-10.9,0.2-15.9-4.7l0,0l0,0c-0.1-0.1-0.2-0.1-0.2-0.2L100.2,231c-2.3-2-5.7-1.9-7.8,0.3
		l-12.1,12.3l-26,26c-3.3,3.3-8.7,3.3-12,0s-3.3-8.7,0-12l0,0l51.2-50.7c1.1-1.1,2.5-1.7,4-1.7s2.9,0.6,4,1.7l0,0l26.5,23.6
		c2.2,2.2,5.8,2.2,8,0l24.3-24.3h37.8v0c1.5,0,2.9-0.6,4-1.7c2.2-2.2,2.2-5.8,0-8c-1.1-1.1-2.6-1.7-4-1.7h-78
		c-4.7,0-8.5-3.8-8.5-8.5s3.8-8.5,8.5-8.5H200c2.3,0,4.4,0.9,6,2.5l0,0l10,10l0,0C222.7,197,222.7,207.8,216,214.5L216,214.5z
		 M117.5,206.1c0.8,0.1,1.6,0.2,2.4,0.2h24.3l-12.5,12.5L117.5,206.1z"/>
</g>
</svg>
