<?xml version="1.0" encoding="utf-8"?>
<!-- Generator: Adobe Illustrator 20.0.0, SVG Export Plug-In . SVG Version: 6.00 Build 0)  -->
<svg version="1.1" id="Layer_1" xmlns="http://www.w3.org/2000/svg" xmlns:xlink="http://www.w3.org/1999/xlink" x="0px" y="0px"
	 width="346.3px" height="306.7px" viewBox="0 0 346.3 306.7" enable-background="new 0 0 346.3 306.7" xml:space="preserve">
<g>
	<rect fill="#002A4E" width="346.3" height="306.7"/>
	<path fill="#FFA600" d="M118,133.3l-34.9,7.4c-28.3,6.1-57.1,19.8-57.9,64.8h149.6v-17.8h81.9v17.8h42.5v-17.8h22v-28.4h-22v-71
		H238l-68.2,69.8V176h-94c2.9-4.3,8.3-7,18.6-8.9l42.7-7.8c17-3.3,40.2-12.2,40.2-34.4c0-32.8-36.5-39.6-75.3-39.6
		c-30.1,0-69.2,5.4-72.8,45.8h51.2c1.3-15.2,14.4-16.4,27.4-16.4c11,0,19.4,2.8,19.4,9.5C127.2,129.1,123.9,132,118,133.3z
		 M256.6,116.8v42.5h-43.2L256.6,116.8z M220.9,257.2h32.3v-16.1h-32.3v-8.4h35.8v-17.3h-76.4l-11,41.2h-0.2l-11.2-41.2H84.6v39.1
		c-2.9-7.3-10.5-10.6-18.1-12.7c-9.6-2.6-19.5-3.6-19.8-8.5c0-3.7,4.8-4.6,7.7-4.6c2,0,4.5,0.4,6.2,1.6c1.7,1.3,2.8,2.9,2.5,5.5h20
		c-0.6-16.5-13.8-22.1-28.6-22.1c-14.1,0-27.6,6.7-27.6,22.4c0,13.7,12.3,16.6,23.1,19.5c11.8,3.4,14.8,4.4,14.8,7.9
		c0,5.2-5.2,6.2-8.7,6.2c-4,0-8.6-0.9-10.1-5c-0.5-1.2-0.8-2.7-0.8-4.5H24c0.3,21.8,22.4,24.4,30.1,24.4c12.8,0,26.4-4,30.5-15.7
		v14.1h57.7v-17.4h-36.6v-8.5H138v-16.1h-32.2v-8.4h35.5v-1.7l15.7,52.2h23.5l19.3-61.1v61.1h56.9v-17.4h-35.8V257.2z M301.7,215.3
		v36.4h-0.2l-20-36.4H260v67.8h20v-37h0.2l21,37h20.5v-67.8H301.7z"/>
	<path fill="#FFFFFF" d="M89,37.7h14.5v39.1h16.4V37.7h15V24.1H89L89,37.7z M25.8,76.8h16.4V56.7h21.3V44.2H42.2v-6.5H67V24.1H25.8
		V76.8z M307.3,44.8c-7.7-2.2-15.1-3-15.5-6.7c0-2.9,3.7-3.7,5.9-3.7c1.7,0,3.5,0.5,4.9,1.4c1.3,0.9,2.1,2.3,1.9,4.2H320
		c-0.4-12.7-10.7-17.2-22.1-17.2c-10.2,0-20,4.6-21.3,15c-1.6-11-11.2-15-22.1-15c-10.9,0-21.4,5.4-21.4,17.4
		c0,10.7,9.7,13,18.1,15.3c9.1,2.7,11.4,3.3,11.4,6.2c0,3.8-4.1,4.7-6.8,4.7c-3,0-6.7-0.7-7.9-3.8c-0.4-0.9-0.6-2.1-0.6-3.5h-16.4
		c0,1.5,0.2,2.9,0.5,4.2h-26.6v-6.6H230V44.2h-25.2v-6.5h27V24.1h-43.4v52.6h44.9v-8.5c5,8.5,16.4,9.8,21.1,9.8
		c8.9,0,18.3-2.5,22.4-9.6c5,8.2,16.3,9.6,20.9,9.6c11.9,0,24.6-4.5,24.6-18.3C322.3,50.3,314.8,46.8,307.3,44.8z M299.2,66.3
		c-3.1,0-6.7-0.7-7.9-3.8c-0.4-0.9-0.5-2.1-0.5-3.5h-11.8c-0.4-9-7.6-12.4-14.8-14.3c-7.5-2.2-15.2-3-15.4-6.7
		c0-2.9,3.7-3.7,5.8-3.7c1.7,0,3.6,0.5,4.9,1.4c1.3,0.9,2.3,2.3,2,4.2h15.1c0,0.1,0,0.2,0,0.3c0,10.7,9.5,13,18.1,15.3
		c9.1,2.7,11.4,3.3,11.4,6.2C305.8,65.5,301.7,66.3,299.2,66.3z M170.1,52.2h-0.2l-15.5-28.1h-16.8v52.6h15.5V47.9h0.2l16.3,28.8
		h15.9V24.1h-15.4V52.2z"/>
	<rect x="69.9" y="24.1" fill="#FFFFFF" width="16.4" height="52.6"/>
</g>
</svg>
