<svg xmlns="http://www.w3.org/2000/svg" xmlns:xlink="http://www.w3.org/1999/xlink" width="98" height="66" viewBox="0 0 98 66">
    <defs>
        <path id="a" d="M0 0h98v66H0V0z"/>
    </defs>
    <g fill="none" fill-rule="evenodd">
        <mask id="b" fill="#fff">
            <use xlink:href="#a"/>
        </mask>
        <path fill="#002a4e" d="M51.004 38.21c0-22.853 15.665-33.822 31.33-38.21l.547 1.645c-17.487 6.765-20.402 12.25-20.402 17.37 0 2.376 1.822 7.13 15.666 7.13C89.802 26.144 98 34.188 98 45.706S87.252 66 75.959 66c-20.037 0-24.955-16.637-24.955-27.79M0 38.21C0 15.357 15.665 4.388 31.33 0l.547 1.645C14.39 8.41 11.476 13.895 11.476 19.015c0 2.376 1.822 7.13 15.665 7.13 11.658 0 19.855 8.044 19.855 19.562S36.249 66 24.956 66C4.918 66 0 49.363 0 38.21" mask="url(#b)"/>
    </g>
</svg>
