<?xml version="1.0" encoding="UTF-8"?>
<svg width="81px" height="67px" viewBox="0 0 81 67" version="1.1" xmlns="http://www.w3.org/2000/svg" xmlns:xlink="http://www.w3.org/1999/xlink">
    <!-- Generator: Sketch 49.3 (51167) - http://www.bohemiancoding.com/sketch -->
    <title>unknown-avatar</title>
    <desc>Created with Sketch.</desc>
    <defs></defs>
    <g id="Page-1" stroke="none" stroke-width="1" fill="none" fill-rule="evenodd" stroke-linecap="round" stroke-linejoin="round">
        <g id="unknown-avatar" transform="translate(-10.000000, -18.000000)" stroke="#002A4E" stroke-width="3">
            <g id="Group" transform="translate(12.000000, 20.000000)">
                <path d="M76.9,60.3 C76.9,52.8 65.4,46.7 57.9,46.7 L55.2,38.6" id="Woman-right-shoulder"></path>
                <path d="M49.8,0.7 C58.8,0.7 64,8.2 66.1,17 C66.8,20 71.5,27.8 71.5,27.8 C68.8,33.2 61.8,38.6 49.8,38.6" id="Woman-face"></path>
                <path d="M28.1,44 C35.6,44 42,35.2 42,27.7 C44.7,27.7 46.4,26.5 46.4,25 L46.4,19.6 C46.4,18.1 43.7,16.9 43.7,16.9 L43.7,11.5 C49.1,3.4 36.9,-4.8 26.1,3.4 C15.3,3.4 13.9,7 13.9,11.5 L13.9,16.9 C13.9,16.9 11.2,18.1 11.2,19.6 L11.2,25 C11.2,26.5 12.2,27.7 14.9,27.7 C15,35.3 20.6,44 28.1,44 Z" id="Man-face_1_"></path>
                <path d="M0.4,62.7 L0.4,60.3 C0.4,52.8 5.7,48.1 13.2,48.1 L17.3,48.1 L21.6,42.2" id="Man-left-shoulder"></path>
                <path d="M57.3,63 L57.3,60.3 C57.3,52.8 50.7,48.1 43.2,48.1 L39.1,48.1 L35.1,41.7" id="Man-right-shoulder"></path>
            </g>
        </g>
    </g>
</svg>